# xmcd
#
# Track frame offsets:
#	150
#	33852
#	60697
#	89145
#	124292
#	147732
#	182985
#	218152
#	239440
#	275100
#	304165
#
# Disc length: 4341 seconds
#
# Revision: 1
# Processed by: cddbd v1.5.1PL0 Copyright (c) Steve Scherf et al.
# Submitted via: CDex 1.50Beta5
#
DISCID=b410f30b
DTITLE=木村吉宏/大阪市音楽団 - GLORIOSA
DYEAR=1900
DGENRE=
TTITLE0=指揮:木村吉宏/大阪市音楽団/合唱:ムジカ・ヴィーヴァ/吹奏楽のための交響詩「ぐるりよざ」
TTITLE1=指揮:木村吉宏/大阪市音楽団/龍笛:藤井恭恵/吹奏楽のための交響詩「ぐるりよざ」
TTITLE2=指揮:木村吉宏/大阪市音楽団/吹奏楽のための交響詩「ぐるりよざ」
TTITLE3=指揮:木村吉宏/大阪市音楽団/未完のオペラへの間奏曲
TTITLE4=指揮:木村吉宏/大阪市音楽団/祝祭交響曲 第一部 ファンファーレ
TTITLE5=指揮:木村吉宏/大阪市音楽団/祝祭交響曲 第二部 追憶・別れ
TTITLE6=指揮:木村吉宏/大阪市音楽団/吹奏楽のための舟歌
TTITLE7=指揮:木村吉宏/大阪市音楽団/交響三頌「ラ・ヴィータ」
TTITLE8=指揮:木村吉宏/大阪市音楽団/交響三頌「ラ・ヴィータ」
TTITLE9=指揮:木村吉宏/大阪市音楽団/交響三頌「ラ・ヴィータ」
TTITLE10=指揮:木村吉宏/大阪市音楽団/日本サッカーの歌
EXTD=
EXTT0=
EXTT1=
EXTT2=
EXTT3=
EXTT4=
EXTT5=
EXTT6=
EXTT7=
EXTT8=
EXTT9=
EXTT10=
PLAYORDER=
